# Blender 5.2.0 LTS
# www.blender.org
mtllib roller_Varsayilan.mtl
o roller_Varsayilan
v -0.015346 -0.003518 0.000058
v -0.015350 -0.003213 -0.001434
v -0.015349 -0.003167 0.001532
v -0.015347 -0.002318 -0.002647
v -0.015345 -0.001920 0.002987
v -0.015346 -0.000998 -0.003374
v -0.015347 -0.000136 0.003516
v -0.015349 0.000520 -0.003480
v -0.015349 0.001351 0.003249
v -0.015347 0.001930 -0.002942
v -0.015346 0.002595 0.002376
v -0.015346 0.002984 -0.001864
v -0.015374 0.003375 0.001077
v -0.015349 0.003492 -0.000431
v -0.014994 -0.004158 0.000060
v -0.015003 -0.003829 0.001585
v -0.015111 -0.003354 -0.002155
v -0.014969 -0.002861 0.003028
v -0.014989 -0.002563 -0.003281
v -0.014968 -0.001558 0.003864
v -0.014995 -0.001194 -0.003983
v -0.014998 0.000140 0.004144
v -0.014998 0.001360 -0.003917
v -0.014999 0.002543 0.003285
v -0.014969 0.002839 -0.003049
v -0.014993 0.003569 0.002137
v -0.014968 0.003757 -0.001801
v -0.014955 0.004165 -0.000333
v -0.014600 -0.004438 -0.000782
v -0.014779 0.000017 -0.004330
v -0.014505 0.001860 0.004170
v -0.014578 0.004404 0.000836
v -0.014474 -0.003421 -0.000823
v -0.014474 -0.003450 0.000690
v -0.014474 -0.002759 -0.002183
v -0.014474 -0.002842 0.002074
v -0.014474 -0.001223 -0.003334
v -0.014474 -0.001405 0.003262
v -0.014474 -0.001504 -0.000204
v -0.014474 -0.001312 0.000762
v -0.014474 -0.000903 -0.001260
v -0.014474 -0.000567 0.001408
v -0.014474 0.000561 -0.001445
v -0.014474 0.000683 0.001391
v -0.014474 0.000636 -0.003460
v -0.014474 0.000502 0.003482
v -0.014474 0.001516 -0.000320
v -0.014474 0.001319 0.000714
v -0.014474 0.002373 -0.002643
v -0.014474 0.001918 0.002950
v -0.014474 0.002979 0.001872
v -0.014474 0.003355 -0.001059
v -0.014474 0.003490 0.000448
v -0.014218 -0.004504 0.001282
v -0.014438 -0.004146 -0.001992
v -0.014098 -0.004020 0.002473
v -0.014178 -0.003123 -0.003516
v -0.014358 -0.003114 0.003399
v -0.013971 -0.002080 -0.004296
v -0.014220 -0.002078 0.004172
v -0.014266 -0.000964 -0.004559
v -0.014232 -0.000839 0.004599
v -0.014232 0.000839 -0.004599
v -0.014266 0.000964 0.004559
v -0.014266 0.002359 -0.004018
v -0.014178 0.003123 0.003516
v -0.014092 0.003781 -0.002864
v -0.014061 0.003802 0.002844
v -0.014011 0.004505 -0.001548
v -0.014073 0.004359 0.001848
v -0.014123 0.004710 -0.000403
v -0.013588 -0.004828 0.000229
v -0.013563 -0.004748 -0.000941
v -0.013587 -0.004297 -0.002223
v -0.013625 -0.003653 -0.003150
v -0.013709 -0.003185 0.003619
v -0.013661 -0.000304 -0.004810
v -0.013661 0.000304 0.004810
v -0.013650 0.002959 -0.003804
v -0.013563 0.004748 0.000941
v -0.012861 -0.004704 0.001617
v -0.011867 -0.003999 0.003223
v -0.011109 -0.002234 0.004765
v -0.012250 -0.001215 0.004941
v -0.012250 0.001215 -0.004941
v -0.011114 0.001553 0.005028
v -0.012238 0.002146 0.004598
v -0.011296 0.003165 0.004171
v -0.011867 0.003999 -0.003223
v -0.010010 -0.005388 -0.000376
v -0.010010 0.005388 0.000376
v -0.009954 -0.005334 0.000960
v -0.009946 -0.005127 -0.001774
v -0.008547 -0.004983 0.002554
v -0.009273 -0.004354 -0.003377
v -0.011296 -0.003165 -0.004171
v -0.009080 -0.003130 0.004566
v -0.011114 -0.001553 -0.005028
v -0.009298 -0.000411 -0.005485
v -0.009298 0.000411 0.005485
v -0.011109 0.002234 -0.004765
v -0.009080 0.003130 -0.004566
v -0.009272 0.004354 0.003377
v -0.009926 0.004859 -0.002400
v -0.009946 0.005127 0.001774
v -0.009954 0.005334 -0.000960
v -0.006273 -0.004453 0.003724
v -0.006276 -0.003017 -0.004962
v -0.008133 -0.001042 0.005523
v -0.008133 0.001042 -0.005523
v -0.007207 0.001739 0.005442
v -0.006276 0.003017 0.004962
v -0.006273 0.004453 -0.003724
v -0.005882 -0.005831 0.000028
v -0.005882 0.005831 -0.000028
v -0.006234 -0.005606 -0.001413
v -0.004242 -0.005757 0.001433
v -0.006250 -0.005191 -0.002566
v -0.004311 -0.003894 0.004461
v -0.007207 -0.001739 -0.005442
v -0.005371 -0.001434 0.005694
v -0.004311 0.000001 -0.005921
v -0.004311 -0.000001 0.005921
v -0.004311 0.003894 -0.004461
v -0.004318 0.004228 0.004159
v -0.006556 0.005136 -0.002621
v -0.006250 0.005191 0.002566
v -0.004242 0.005757 -0.001433
v -0.006234 0.005606 0.001413
v -0.003578 -0.005514 0.002226
v -0.004318 -0.004228 -0.004159
v -0.002363 -0.003122 0.005132
v -0.002365 -0.001112 -0.005904
v -0.005371 0.001434 -0.005694
v -0.002365 0.001112 0.005904
v -0.002363 0.003122 -0.005132
v -0.003578 0.005514 -0.002226
v -0.001527 -0.005909 -0.001114
v -0.000944 -0.005459 -0.002565
v -0.000444 -0.005206 0.003032
v -0.000484 -0.002182 0.005616
v -0.000484 0.002182 -0.005616
v -0.001341 0.002503 0.005466
v -0.000444 0.005206 -0.003032
v -0.000944 0.005459 0.002565
v -0.001527 0.005909 0.001114
v 0.000722 -0.006007 0.000515
v 0.001374 -0.004618 -0.003862
v 0.001376 -0.004617 0.003863
v -0.001341 -0.002503 -0.005466
v -0.000332 -0.001115 0.005912
v -0.000332 0.001115 -0.005912
v 0.000545 0.003692 0.004752
v 0.001376 0.004617 -0.003863
v 0.001374 0.004618 0.003862
v 0.000722 0.006007 -0.000515
v 0.003223 -0.005723 0.001701
v 0.000545 -0.003692 -0.004752
v 0.004058 -0.003642 0.004690
v 0.003205 -0.000001 -0.005961
v 0.003205 0.000001 0.005961
v 0.004062 0.002470 0.005401
v 0.003198 0.005161 0.002984
v 0.003223 0.005723 -0.001701
v 0.003200 0.005855 0.001169
v 0.003200 -0.005855 -0.001169
v 0.003198 -0.005161 -0.002984
v 0.004912 -0.005275 0.002603
v 0.004062 -0.002470 -0.005401
v 0.005732 -0.002432 0.005311
v 0.004916 -0.001091 -0.005788
v 0.004917 -0.001090 0.005788
v 0.004917 0.001090 -0.005788
v 0.004916 0.001091 0.005788
v 0.004058 0.003642 -0.004690
v 0.005733 0.003580 0.004614
v 0.005135 -0.005853 0.000323
v 0.006789 -0.005456 -0.001852
v 0.005733 -0.003580 -0.004614
v 0.005732 0.002432 -0.005311
v 0.004912 0.005275 -0.002603
v 0.006789 0.005456 0.001852
v 0.005135 0.005853 -0.000323
v 0.008068 -0.004325 -0.003617
v 0.008070 -0.004324 0.003618
v 0.008070 0.004324 -0.003618
v 0.008068 0.004325 0.003617
v 0.008001 -0.005551 0.000996
v 0.009828 -0.005408 -0.000573
v 0.009581 -0.004902 0.002440
v 0.009606 -0.003181 0.004455
v 0.009500 0.000217 -0.005471
v 0.009500 -0.000217 0.005471
v 0.009464 0.002479 0.004902
v 0.009581 0.004902 -0.002440
v 0.009812 0.004756 0.002634
v 0.008001 0.005551 -0.000996
v 0.009828 0.005408 0.000573
v 0.009812 -0.004756 -0.002634
v 0.009464 -0.002479 -0.004902
v 0.010177 -0.001061 -0.005281
v 0.010472 -0.001548 0.005115
v 0.010177 0.001061 0.005281
v 0.010472 0.001548 -0.005115
v 0.009606 0.003181 -0.004455
v 0.011036 -0.005184 0.000943
v 0.010827 -0.005065 -0.001529
v 0.012575 -0.003226 -0.003856
v 0.012580 0.003239 0.003844
v 0.010827 0.005065 0.001529
v 0.011036 0.005184 -0.000943
v 0.013198 -0.004887 0.000473
v 0.013222 -0.003713 -0.003187
v 0.012732 -0.003802 0.003229
v 0.013229 -0.002183 -0.004373
v 0.013236 -0.001901 0.004506
v 0.013182 -0.000813 -0.004826
v 0.013154 -0.000417 0.004886
v 0.013229 0.000376 -0.004873
v 0.013205 0.001095 0.004778
v 0.013231 0.002054 -0.004433
v 0.013249 0.002525 0.004172
v 0.013194 0.003539 -0.003396
v 0.013141 0.003963 0.002910
v 0.013254 -0.004804 -0.000725
v 0.013258 -0.004464 -0.001959
v 0.013262 -0.004331 0.002235
v 0.013324 -0.003083 0.003726
v 0.013264 0.004404 -0.002077
v 0.013269 0.004685 0.001317
v 0.013192 0.004893 -0.000328
v 0.013673 0.003437 0.003116
v 0.013526 -0.003471 -0.000764
v 0.013526 -0.003336 0.001124
v 0.013526 -0.002556 -0.002421
v 0.013526 -0.002556 0.002421
v 0.013526 -0.001303 -0.003270
v 0.013526 -0.001303 0.003270
v 0.013526 -0.001504 0.000204
v 0.013526 -0.001312 -0.000762
v 0.013526 -0.000903 0.001260
v 0.013526 -0.000567 -0.001408
v 0.013526 0.000191 -0.003515
v 0.013526 0.000191 0.003515
v 0.013526 0.000683 -0.001391
v 0.013526 0.000561 0.001445
v 0.013526 0.001649 -0.003110
v 0.013526 0.001995 0.002942
v 0.013526 0.001319 -0.000714
v 0.013526 0.001516 0.000320
v 0.013526 0.002802 -0.002130
v 0.013526 0.003195 0.001478
v 0.013526 0.003533 -0.000384
v 0.014120 -0.004242 0.000272
v 0.014091 -0.004025 -0.001428
v 0.014111 -0.003878 0.001777
v 0.014119 -0.003129 -0.002875
v 0.014099 -0.003021 0.003029
v 0.013885 -0.002133 -0.003921
v 0.014107 -0.001762 0.003889
v 0.014132 -0.000852 -0.004152
v 0.014112 -0.000272 0.004257
v 0.014119 0.001050 -0.004117
v 0.014099 0.001236 0.004095
v 0.013885 0.002442 -0.003736
v 0.014107 0.002590 0.003394
v 0.014132 0.003254 -0.002716
v 0.014091 0.003879 0.001788
v 0.014134 0.003987 -0.001351
v 0.013885 0.004443 -0.000420
v 0.014120 0.004195 0.000509
v 0.014458 -0.003520 0.000000
v 0.014456 -0.003194 -0.001479
v 0.014456 -0.003194 0.001479
v 0.014458 -0.002275 -0.002686
v 0.014458 -0.002275 0.002686
v 0.014455 -0.000573 -0.003507
v 0.014455 -0.000573 0.003507
v 0.014458 0.001307 -0.003269
v 0.014459 0.001666 0.003139
v 0.014455 0.002830 -0.002149
v 0.014455 0.003225 0.001493
v 0.014458 0.003500 -0.000377
vn 0.0963 0.9792 -0.1785
vn 0.1511 0.9715 -0.1827
vn 0.1280 0.8870 -0.4436
vn 0.0140 0.7551 -0.6554
vn 0.0435 0.6127 -0.7891
vn -0.0488 0.6605 -0.7492
vn -0.0242 0.5260 -0.8501
vn -0.1735 0.2231 -0.9592
vn -0.1054 0.1899 -0.9761
vn -0.1203 -0.0626 -0.9908
vn -0.2436 -0.0367 -0.9692
vn -0.1431 -0.3171 -0.9375
vn -0.3991 -0.2154 -0.8913
vn -0.3362 -0.4229 -0.8415
vn -0.1396 -0.5772 -0.8046
vn -0.0804 -0.5266 -0.8463
vn -0.0139 -0.4214 -0.9068
vn 0.0060 -0.6045 -0.7966
vn 0.0413 -0.4132 -0.9097
vn 0.0700 -0.6194 -0.7820
vn 0.1191 -0.4572 -0.8813
vn 0.3806 -0.3913 -0.8378
vn 0.2138 -0.6274 -0.7488
vn 0.3361 0.9409 -0.0421
vn 0.3640 0.8352 -0.4123
vn 0.0734 0.4148 -0.9070
vn 0.0047 0.3775 -0.9260
vn -0.0022 0.1563 -0.9877
vn -0.0695 0.2701 -0.9603
vn -0.0885 -0.2915 -0.9525
vn 0.0975 0.7611 -0.6413
vn 0.1276 0.5693 -0.8122
vn -0.0549 -0.0058 -0.9985
vn -0.0223 -0.1823 -0.9830
vn 0.3541 0.6681 -0.6544
vn 0.0286 -0.0066 -0.9996
vn 0.0670 -0.1820 -0.9810
vn 0.3591 0.3659 -0.8586
vn 0.1378 0.2954 -0.9454
vn 0.0609 0.1818 -0.9814
vn 0.1162 0.0436 -0.9923
vn 0.4103 0.0716 -0.9091
vn 0.3788 -0.1626 -0.9111
vn 0.1362 -0.1994 -0.9704
vn -0.0456 -0.7216 -0.6908
vn -0.3887 -0.6270 -0.6751
vn 0.3860 -0.7038 -0.5964
vn 0.4146 -0.8390 -0.3523
vn 0.1310 -0.8638 -0.4865
vn 0.1517 -0.9458 -0.2870
vn 0.0812 -0.9440 -0.3198
vn 0.0258 -0.9792 -0.2012
vn 0.0694 -0.9964 0.0490
vn 0.0016 -0.9956 0.0935
vn 0.1360 -0.9861 -0.0951
vn 0.4052 -0.9078 -0.1081
vn 0.3830 -0.9145 0.1306
vn -0.0231 -0.9828 -0.1832
vn -0.0829 -0.9965 -0.0049
vn 0.0993 -0.7583 -0.6443
vn -0.2132 -0.9527 -0.2166
vn -0.1148 -0.9912 -0.0652
vn -0.2276 -0.9730 0.0380
vn -0.1285 -0.9343 -0.3325
vn -0.0729 -0.9689 -0.2366
vn -0.4909 -0.7702 -0.4073
vn -0.2136 -0.8614 -0.4607
vn -0.0683 -0.8873 -0.4561
vn -0.0153 -0.8998 -0.4359
vn -0.1149 -0.7818 -0.6128
vn 0.0435 -0.8737 -0.4845
vn -0.1451 0.4241 -0.8939
vn -0.1095 0.5628 -0.8193
vn -0.0106 0.8682 -0.4961
vn 0.0656 0.8877 -0.4557
vn -0.4004 0.2077 -0.8925
vn -0.0797 0.7635 -0.6409
vn 0.0336 0.9579 -0.2851
vn 0.1271 0.9864 0.1046
vn -0.4073 0.4799 -0.7770
vn -0.2484 0.5997 -0.7607
vn -0.1552 0.7653 -0.6247
vn -0.0321 0.9165 -0.3988
vn -0.0510 0.9733 -0.2240
vn -0.0053 0.9962 -0.0865
vn -0.3784 0.7447 -0.5497
vn -0.1247 0.8886 -0.4413
vn -0.0868 0.8972 -0.4329
vn -0.3542 0.8822 -0.3104
vn -0.1281 0.9751 -0.1810
vn -0.0732 0.9973 0.0100
vn -0.3730 0.9243 -0.0808
vn -0.1296 0.9878 0.0861
vn 0.0558 0.9977 -0.0377
vn 0.0150 -0.7655 -0.6432
vn -0.2583 -0.7446 -0.6155
vn -0.9037 -0.4270 -0.0318
vn -0.0173 -0.9495 0.3132
vn -0.0261 -0.9929 -0.1161
vn -0.9402 -0.3221 -0.1111
vn -0.0224 -0.8454 -0.5337
vn 0.0060 -0.7312 -0.6821
vn -0.0089 -0.5491 -0.8357
vn 0.0094 -0.3800 -0.9249
vn -0.0191 -0.1349 -0.9907
vn -0.0090 0.0598 -0.9982
vn 0.0004 0.3723 -0.9281
vn -0.0007 0.5620 -0.8271
vn 0.0082 0.7948 -0.6068
vn 0.0187 0.8968 -0.4420
vn -0.0094 0.9796 -0.2008
vn 0.0097 0.9999 -0.0114
vn -0.0087 0.9733 0.2292
vn 0.0093 0.9116 0.4109
vn -0.0194 0.7791 0.6266
vn -0.0187 0.6474 0.7619
vn -0.0026 0.3405 0.9403
vn 0.0201 0.2486 0.9684
vn -0.0044 -0.1296 0.9916
vn -0.0222 -0.1791 0.9836
vn -0.0015 -0.5164 0.8563
vn -0.0062 -0.6674 0.7446
vn -0.0132 -0.8512 0.5247
vn 0.0139 -0.9051 -0.4250
vn -0.0254 -0.9938 0.1082
vn -0.0258 -0.9939 0.1069
vn 0.0148 -0.8029 0.5960
vn 0.0256 -0.8068 0.5903
vn -0.0154 -0.4870 0.8733
vn -0.0186 -0.3677 0.9298
vn -0.0165 -0.0763 0.9969
vn 0.0007 0.1610 0.9870
vn -0.0161 0.3902 0.9206
vn -0.0126 0.6330 0.7741
vn 0.0122 0.7380 0.6747
vn 0.0160 0.8979 0.4400
vn -0.0009 0.9766 0.2149
vn 0.0160 0.9996 -0.0219
vn 0.0124 0.9531 -0.3025
vn -0.0026 0.9034 -0.4289
vn 0.0020 0.7326 -0.6807
vn -0.0126 0.6329 -0.7741
vn -0.0161 0.3902 -0.9206
vn -0.0081 0.1508 -0.9885
vn -0.0347 -0.0961 -0.9948
vn -0.0152 -0.4552 -0.8903
vn -0.0216 -0.5910 -0.8064
vn 0.0256 -0.9074 -0.4196
vn 0.9537 0.2994 -0.0299
vn 0.7810 0.5875 -0.2117
vn 0.7694 0.6345 0.0741
vn 0.6639 0.7438 -0.0775
vn 0.3553 0.9065 0.2281
vn 0.9599 0.2206 -0.1728
vn 0.7681 0.4856 -0.4174
vn 0.9477 0.1446 -0.2846
vn 0.7696 0.1524 -0.6201
vn 0.2178 -0.7474 0.6277
vn 0.4080 -0.8250 0.3911
vn 0.3972 -0.5650 0.7232
vn 0.1962 0.6536 0.7309
vn 0.3846 0.4633 0.7984
vn 0.5674 0.6102 0.5529
vn 0.3489 0.7827 0.5154
vn 0.7677 -0.1260 -0.6283
vn 0.9583 -0.0450 -0.2823
vn 0.6946 -0.3496 -0.6287
vn 0.9468 -0.1830 -0.2649
vn 0.7687 -0.4709 -0.4329
vn 0.9538 -0.2724 -0.1271
vn 0.7623 -0.6109 -0.2137
vn 0.9574 -0.2886 -0.0102
vn 0.7679 -0.6392 0.0420
vn 0.9578 -0.2581 0.1264
vn 0.7627 -0.5906 0.2637
vn 0.7581 -0.4735 0.4484
vn 0.9587 -0.1863 0.2151
vn 0.7673 -0.2654 0.5838
vn 0.3536 -0.3555 0.8652
vn 0.9597 -0.0399 0.2780
vn 0.7593 -0.0325 0.6499
vn 0.9597 0.1290 0.2498
vn 0.7681 0.1746 0.6161
vn 0.7779 0.3844 0.4971
vn 0.7511 0.5940 0.2883
vn 0.9553 0.2629 0.1354
vn 0.6942 0.3953 -0.6015
vn 0.3491 -0.0526 0.9356
vn 0.3575 0.2221 0.9071
vn -0.1986 0.9676 0.1560
vn -0.5668 0.8090 0.1555
vn -0.3462 0.8571 0.3816
vn -0.2201 0.0487 0.9743
vn -0.4240 0.2071 0.8817
vn -0.3920 -0.1966 0.8987
vn -0.1985 -0.6447 0.7382
vn -0.4060 -0.3837 0.8294
vn -0.4647 -0.6005 0.6508
vn -0.3705 -0.8026 0.4675
vn -0.4055 -0.8763 0.2601
vn -0.5515 -0.8212 -0.1465
vn -0.7193 0.6922 -0.0590
vn -0.7208 0.5939 0.3575
vn -0.9282 0.2730 0.2528
vn -0.7458 0.4037 0.5299
vn -0.8886 0.1604 0.4297
vn -0.7340 0.0273 0.6786
vn -0.9282 -0.0294 0.3709
vn -0.7314 -0.2455 0.6362
vn -0.9201 -0.2119 0.3295
vn -0.7340 -0.4727 0.4876
vn -0.7348 -0.6210 0.2727
vn -0.9302 -0.3240 0.1723
vn -0.9302 -0.3670 0.0011
vn -0.7296 -0.6838 0.0123
vn -0.9096 -0.3947 -0.1294
vn -0.7881 -0.5173 -0.3337
vn -0.7180 -0.4255 -0.5508
vn -0.9345 -0.2266 -0.2746
vn -0.7353 -0.2078 -0.6451
vn -0.9300 -0.0988 -0.3542
vn -0.6784 0.0037 -0.7346
vn -0.8963 0.0304 -0.4424
vn -0.7401 0.2211 -0.6351
vn -0.9205 0.2156 -0.3260
vn -0.7167 0.4813 -0.5047
vn -0.9218 0.3262 -0.2094
vn -0.7135 0.6378 -0.2900
vn -0.3503 0.7535 0.5563
vn -0.3642 0.5944 0.7170
vn -0.4864 0.3272 0.8102
vn -0.0034 0.8649 0.5020
vn 0.0035 0.9871 0.1601
vn -0.0035 0.9871 -0.1601
vn 0.0034 0.8649 -0.5020
vn -0.0042 0.5557 -0.8314
vn 0.0029 0.3426 -0.9395
vn -0.0032 -0.3625 -0.9320
vn -0.0014 -0.4049 -0.9143
vn -0.0035 -0.9667 -0.2558
vn -0.0001 -0.8897 -0.4565
vn 0.0035 -0.9667 0.2558
vn 0.0001 -0.8897 0.4565
vn 0.0014 -0.4049 0.9143
vn 0.0032 -0.3625 0.9320
vn -0.0029 0.3426 0.9395
vn 0.0042 0.5557 0.8314
vn -0.1268 -0.9754 0.1801
vn -0.0513 -0.9729 0.2255
vn 0.0355 -0.9581 0.2842
vn -0.0386 -0.9083 0.4165
vn -0.0107 -0.8694 0.4940
vn -0.0469 -0.6600 0.7498
vn 0.0158 -0.7543 0.6564
vn 0.0440 -0.6134 0.7886
vn -0.0247 -0.5273 0.8493
vn -0.0549 0.0058 0.9985
vn -0.0021 -0.1552 0.9879
vn 0.0285 0.0058 0.9996
vn -0.0222 0.1826 0.9829
vn -0.0130 0.4225 0.9063
vn 0.0412 0.4135 0.9096
vn -0.0476 0.7208 0.6915
vn 0.0045 0.6033 0.7975
vn 0.0164 0.7664 0.6421
vn -0.0166 0.8990 0.4376
vn 0.0446 0.8744 0.4832
vn -0.0298 0.9852 0.1686
vn 0.0455 0.9791 0.1984
vn 0.1177 0.4569 0.8817
vn 0.0690 0.6204 0.7812
vn 0.0654 -0.8876 0.4559
vn 0.0732 -0.4145 0.9071
vn 0.0051 -0.3774 0.9260
vn 0.0612 -0.1818 0.9814
vn 0.0670 0.1820 0.9810
vn 0.0974 -0.9788 0.1802
vn 0.1500 -0.9707 0.1876
vn 0.1253 -0.8902 0.4379
vn 0.1279 -0.5703 0.8114
vn 0.1360 -0.2965 0.9453
vn 0.1170 -0.0430 0.9922
vn 0.1366 0.1951 0.9712
vn 0.1299 0.8654 0.4840
vn 0.1575 0.9425 0.2947
vn 0.0794 0.9437 0.3211
vn -0.1317 0.9327 0.3357
vn -0.0729 0.9689 0.2366
vn -0.0683 0.8873 0.4561
vn -0.1184 0.7824 0.6114
vn -0.1473 0.6052 0.7823
vn -0.1905 0.4309 0.8820
vn -0.1203 0.0626 0.9908
vn -0.1054 -0.1899 0.9761
vn -0.0693 -0.2696 0.9605
vn -0.1397 0.2901 0.9467
vn -0.1704 -0.2189 0.9607
vn -0.1087 -0.5625 0.8196
vn -0.0755 -0.7744 0.6281
vn -0.1460 -0.4281 0.8918
vn -0.1092 -0.8872 0.4482
vn -0.1524 -0.7751 0.6132
vn -0.1783 -0.9293 0.3236
vn 0.0961 -0.7618 0.6407
vn -0.0885 0.2915 0.9525
vn -0.0805 0.5260 0.8466
vn 0.0986 0.7590 0.6436
vn 1.0000 -0.0000 -0.0000
vn -1.0000 -0.0000 -0.0000
vt -0.585940 0.193184
vt -0.237768 0.193903
vt -0.398143 0.456151
vt -1.280055 0.638696
vt -1.005691 0.787386
vt -1.855104 0.749729
vt -1.655743 0.863136
vt -2.735582 1.055004
vt -2.255231 1.087372
vt -2.393913 1.249321
vt -2.919307 1.250165
vt -2.603021 1.379282
vt -2.958207 1.366900
vt -2.929750 1.479975
vt -2.624977 1.601385
vt -2.058955 1.535990
vt -1.552210 1.460815
vt -1.362886 1.610025
vt -1.006011 1.462242
vt -0.831860 1.612870
vt -0.418512 1.483564
vt -0.007458 1.474640
vt -0.047559 1.631187
vt -0.010441 0.083107
vt 0.000000 0.432810
vt -0.831410 0.938231
vt -1.466581 0.974648
vt -1.451218 1.087507
vt -1.951571 1.030809
vt -2.157474 1.385672
vt -0.580329 0.638683
vt -0.395477 0.813200
vt -1.855108 1.199567
vt -1.655384 1.311715
vt -0.015953 0.683431
vt -1.093980 1.199567
vt -0.919974 1.311763
vt -0.007534 0.924933
vt -0.298764 1.024355
vt -0.920124 1.087500
vt -0.420876 1.173368
vt -0.008524 1.138359
vt -0.014840 1.301867
vt -0.348741 1.328042
vt -1.852549 1.703418
vt -2.930166 1.610923
vt -0.025222 1.759682
vt 0.000000 1.965441
vt -0.381080 1.912125
vt -0.263686 2.091066
vt -0.721323 2.062356
vt -1.093453 2.182104
vt -0.845235 2.399134
vt -1.268877 2.399134
vt -0.387029 2.286961
vt -0.000000 2.206123
vt -0.017064 2.399134
vt -1.574858 2.205980
vt -1.936704 2.365250
vt -0.579915 1.760560
vt -2.907124 2.193880
vt -2.469729 2.322117
vt -2.941957 2.399134
vt -2.457005 2.056616
vt -2.051942 2.134920
vt -2.958207 2.021290
vt -2.900663 1.899270
vt -2.051981 1.946227
vt -1.523150 1.961748
vt -2.392334 1.795044
vt -1.094686 1.898865
vt -2.602055 0.929520
vt -2.365589 0.819737
vt -1.462422 0.499049
vt -0.919205 0.449806
vt -2.958207 1.087598
vt -2.059702 0.638619
vt -1.092947 0.301501
vt -0.480025 0.000000
vt -2.958207 0.917431
vt -2.921247 0.796206
vt -2.694154 0.617767
vt -1.778782 0.391771
vt -1.848299 0.244852
vt -1.335830 0.104620
vt -2.937475 0.603367
vt -2.457514 0.452750
vt -2.094818 0.477064
vt -2.930933 0.372119
vt -2.458316 0.193572
vt -2.032663 0.048224
vt -2.946629 0.157419
vt -2.498037 0.000000
vt -0.890360 0.066839
vt -1.279652 1.760574
vt -2.918927 1.739498
vt 0.087212 -1.056546
vt 0.000000 -0.992650
vt 0.000000 -1.099557
vt 0.087212 1.099557
vt 0.000000 1.054802
vt 0.087212 0.991251
vt 0.000000 0.903139
vt 0.087212 0.840135
vt 0.000000 0.751476
vt 0.087212 0.687716
vt 0.000000 0.599813
vt 0.087212 0.536320
vt 0.000000 0.407602
vt 0.087212 0.350217
vt 0.000000 0.220654
vt 0.087212 0.157695
vt 0.000000 0.068992
vt 0.087212 0.005836
vt 0.000000 -0.082671
vt 0.087212 -0.146847
vt 0.000000 -0.234334
vt 0.087212 -0.298005
vt 0.000000 -0.427117
vt 0.087212 -0.449101
vt 0.087212 -0.601696
vt 0.000000 -0.613492
vt 0.087212 -0.752934
vt 0.000000 -0.805702
vt 0.087212 -0.904040
vt 0.093067 0.152078
vt 0.000000 -0.038208
vt 0.093067 -0.037599
vt 0.093067 -0.227031
vt 0.000000 -0.227494
vt 0.000000 -0.379157
vt 0.093067 -0.416649
vt 0.000000 -0.530821
vt 0.093067 -0.606140
vt 0.000000 -0.682484
vt 0.093067 -0.795698
vt 0.000000 -0.834147
vt 0.093067 -0.947797
vt 0.000000 -1.023434
vt 0.093067 -1.099558
vt 0.093067 1.061642
vt 0.000000 1.099557
vt 0.000000 0.985810
vt 0.093067 0.947797
vt 0.000000 0.834147
vt 0.093067 0.795698
vt 0.000000 0.682484
vt 0.093067 0.606140
vt 0.000000 0.530821
vt 0.093067 0.379347
vt 0.000000 0.340950
vt 0.000000 0.151663
vt 0.261346 -1.350496
vt 0.180546 -1.258952
vt 0.204966 -1.398311
vt 0.182020 1.345491
vt 0.148586 1.440279
vt 0.079356 1.432716
vt 0.075122 1.279126
vt 0.261346 -1.109594
vt 0.182508 -1.088612
vt 0.261346 -0.868457
vt 0.178845 -0.815101
vt 0.035826 -0.388420
vt 0.067705 -0.483702
vt 0.074606 -0.318414
vt 0.035826 0.310736
vt 0.068381 0.219196
vt 0.078128 0.388093
vt 0.035826 1.009891
vt 0.074285 0.946319
vt 0.120856 1.078697
vt 0.055901 1.124737
vt 0.182570 -0.609009
vt 0.070514 -0.734101
vt 0.065148 -0.609928
vt 0.261346 -0.627480
vt 0.148586 -0.477404
vt 0.261346 -0.386419
vt 0.178799 -0.335613
vt 0.261346 -0.192994
vt 0.176759 -0.155744
vt 0.261346 0.000000
vt 0.181629 0.029168
vt 0.261346 0.192994
vt 0.172234 0.196738
vt 0.171271 0.355275
vt 0.261346 0.386419
vt 0.171932 0.515145
vt 0.065674 0.522359
vt 0.261346 0.627480
vt 0.172276 0.676284
vt 0.261346 0.915894
vt 0.171299 0.834736
vt 0.171945 0.994661
vt 0.176677 1.202384
vt 0.261346 1.204913
vt 0.261346 1.398311
vt 0.070853 -0.890952
vt 0.148586 -0.956825
vt 0.069805 -1.054473
vt 0.074590 -1.200555
vt 0.148586 -1.356342
vt 0.073511 -1.319143
vt 0.067570 -0.175047
vt 0.066517 -0.057144
vt 0.063566 0.054371
vt 0.058947 0.660635
vt 0.071989 0.800191
vt -0.040006 1.276951
vt -0.077471 1.356761
vt -0.115996 1.276951
vt -0.076184 1.197142
vt -0.040006 0.718285
vt -0.081476 0.768639
vt -0.076718 0.598162
vt -0.040006 0.370389
vt -0.076212 0.478857
vt -0.090567 0.358083
vt -0.069304 0.239428
vt -0.040006 0.000000
vt -0.075745 0.118875
vt -0.113570 -0.077588
vt -0.040006 -0.079809
vt -0.094234 -0.195802
vt -0.040006 -0.239428
vt -0.040006 -0.319238
vt -0.076931 -0.370678
vt -0.040006 -0.638476
vt -0.081476 -0.588122
vt -0.076718 -0.758599
vt -0.040006 -0.957713
vt -0.081530 -0.907469
vt -0.068778 -1.077340
vt -0.242251 1.356761
vt -0.241338 1.223312
vt -0.164965 1.393175
vt -0.163031 1.119478
vt -0.242251 1.036655
vt -0.163487 0.958366
vt -0.242251 0.848584
vt -0.169523 0.695583
vt -0.242251 0.661774
vt -0.166033 0.515294
vt -0.242251 0.432138
vt -0.166434 0.354805
vt -0.171907 0.169678
vt -0.242251 0.194582
vt -0.242251 0.007201
vt -0.163108 0.001873
vt -0.242251 -0.181196
vt -0.191690 -0.246505
vt -0.162836 -0.396052
vt -0.076087 -0.478857
vt -0.242251 -0.367713
vt -0.163150 -0.556935
vt -0.242251 -0.554153
vt -0.141129 -0.680130
vt -0.242251 -0.742442
vt -0.169821 -0.820195
vt -0.242251 -0.929057
vt -0.165981 -1.000484
vt -0.242251 -1.115509
vt -0.166115 -1.160957
vt -0.242251 -1.303689
vt -0.164965 -1.298968
vt -0.056695 1.082973
vt -0.076931 0.986082
vt -0.106140 0.858657
vt -0.080875 -1.306042
vt -0.076192 -1.197142
vt 2.900000 -0.392228
vt 0.100000 -0.451042
vt 2.900000 -0.471239
vt 2.900000 0.451042
vt 0.100000 0.471239
vt 0.100000 0.392228
vt 2.900000 0.328632
vt 0.100000 0.293020
vt 2.900000 0.179819
vt 0.100000 0.166563
vt 2.900000 0.031007
vt 0.100000 0.074406
vt 0.100000 -0.031007
vt 2.900000 -0.074406
vt 2.900000 -0.166563
vt 0.100000 -0.179819
vt 2.900000 -0.293020
vt 0.100000 -0.328632
vt -2.913506 0.025714
vt -2.498038 0.000000
vt -2.458316 0.193572
vt -2.032663 0.048224
vt -1.848298 0.244852
vt -1.335830 0.104620
vt -1.092947 0.301501
vt -1.778782 0.391771
vt -1.462422 0.499049
vt -1.855104 0.749729
vt -1.280055 0.638696
vt -1.005691 0.787386
vt -1.655743 0.863136
vt -1.855108 1.199567
vt -1.451218 1.087507
vt -1.655384 1.311715
vt -1.552210 1.460815
vt -1.006011 1.462242
vt -1.852549 1.703418
vt -1.362886 1.610025
vt -1.279652 1.760574
vt -1.523150 1.961748
vt -1.094686 1.898865
vt -1.268877 2.399134
vt -0.418512 1.483564
vt -0.046873 1.632870
vt -0.831860 1.612870
vt -0.919205 0.449806
vt -0.831410 0.938231
vt -0.920124 1.087500
vt -0.919973 1.311763
vt -0.585940 0.193184
vt -0.890360 0.066839
vt -0.480025 0.000000
vt -0.237768 0.193903
vt -0.009807 0.082087
vt 0.000000 0.437867
vt -0.398143 0.456151
vt -0.025704 0.640505
vt -0.000000 0.762960
vt -0.395477 0.813200
vt -0.004477 0.955163
vt -0.006808 1.159810
vt -0.007147 1.349994
vt -0.348741 1.328042
vt -0.011937 1.519459
vt -0.381080 1.912125
vt -0.012808 1.827100
vt 0.000000 2.122109
vt -0.263686 2.091065
vt -0.387029 2.286961
vt -0.018336 2.399134
vt -0.845235 2.399134
vt -1.936704 2.365250
vt -2.907124 2.193880
vt -2.469729 2.322117
vt -2.457004 2.056616
vt -2.051942 2.134920
vt -2.939447 2.016140
vt -2.051981 1.946227
vt -2.929390 1.812984
vt -2.392334 1.795044
vt -2.624977 1.601385
vt -2.930166 1.610923
vt -2.958207 1.481703
vt -2.744700 1.468738
vt -2.393913 1.249321
vt -2.255232 1.087372
vt -1.951571 1.030809
vt -2.919307 1.250165
vt -2.958207 1.087598
vt -2.735582 1.055004
vt -2.365589 0.819737
vt -2.059702 0.638619
vt -2.602055 0.929520
vt -2.927024 0.751069
vt -2.308506 0.462739
vt -2.694154 0.617767
vt -2.937623 0.530608
vt -2.805502 0.345789
vt -2.958207 0.288819
vt -0.580329 0.638683
vt -2.058955 1.535990
vt -0.579915 1.760560
vt -0.329734 0.111100
vt -0.336437 -0.074352
vt -0.146691 0.019831
vt -0.127940 -0.074450
vt -0.252609 -0.239284
vt -0.055234 -0.137334
vt -0.128789 -0.323236
vt 0.018838 -0.347438
vt 0.064282 -0.129315
vt 0.162982 -0.307416
vt 0.276999 -0.210569
vt 0.131921 -0.071392
vt 0.342504 -0.037541
vt 0.141890 0.029854
vt 0.315789 0.146100
vt 0.193600 0.285022
vt 0.052613 0.135114
vt 0.018838 0.347438
vt -0.084336 0.117947
vt -0.128789 0.323236
vt -0.252609 0.239284
vt 0.331914 0.104631
vt 0.141890 0.029854
vt 0.345170 -0.044406
vt 0.294623 -0.185235
vt 0.064282 -0.129315
vt 0.189614 -0.291824
vt 0.049556 -0.344469
vt -0.136359 -0.316847
vt -0.055234 -0.137334
vt -0.281130 -0.205135
vt -0.341281 -0.068132
vt -0.338346 0.081466
vt -0.272868 0.216004
vt -0.084336 0.117947
vt -0.118146 0.323447
vt 0.052613 0.135114
vt 0.063028 0.342261
vt 0.230391 0.256721
s 1
usemtl 160,160,160.001
f 197/1/1 211/2/2 195/3/3
f 154/4/4 175/5/5 124/6/6
f 124/6/6 175/5/5 136/7/7
f 85/8/8 110/9/9 99/10/10
f 85/8/8 99/10/10 77/11/11
f 77/11/11 98/12/12 61/13/13
f 61/13/13 98/12/12 59/14/14
f 96/15/15 59/14/14 108/16/16
f 108/16/16 150/17/17 158/18/18
f 158/18/18 150/17/17 169/19/19
f 158/18/18 169/19/19 179/20/20
f 179/20/20 169/19/19 200/21/21
f 200/21/21 215/22/22 208/23/23
f 211/2/2 231/24/24 229/25/25
f 211/2/2 229/25/25 195/3/3
f 175/5/5 180/26/26 136/7/7
f 136/7/7 180/26/26 142/27/27
f 142/27/27 152/28/28 134/29/29
f 99/10/10 120/30/30 98/12/12
f 186/31/31 205/32/32 175/5/5
f 134/29/29 152/28/28 122/33/33
f 122/33/33 133/34/34 99/10/10
f 99/10/10 133/34/34 120/30/30
f 195/3/3 229/25/25 223/35/35
f 160/36/36 171/37/37 133/34/34
f 223/35/35 221/38/38 205/32/32
f 205/32/32 221/38/38 204/39/39
f 205/32/32 204/39/39 180/26/26
f 180/26/26 204/39/39 173/40/40
f 133/34/34 171/37/37 169/19/19
f 133/34/34 169/19/19 150/17/17
f 204/39/39 192/41/41 173/40/40
f 173/40/40 192/41/41 160/36/36
f 160/36/36 192/41/41 171/37/37
f 204/39/39 221/38/38 219/42/42
f 192/41/41 219/42/42 217/43/43
f 192/41/41 217/43/43 201/44/44
f 217/43/43 215/22/22 201/44/44
f 201/44/44 215/22/22 200/21/21
f 200/21/21 208/23/23 179/20/20
f 158/18/18 131/45/45 108/16/16
f 108/16/16 131/45/45 96/15/15
f 96/15/15 57/46/46 59/14/14
f 213/47/47 226/48/48 199/49/49
f 199/49/49 207/50/50 178/51/51
f 166/52/52 177/53/53 147/54/54
f 199/49/49 226/48/48 207/50/50
f 178/51/51 189/55/55 166/52/52
f 166/52/52 189/55/55 177/53/53
f 207/50/50 226/48/48 225/56/56
f 207/50/50 225/56/56 189/55/55
f 225/56/56 212/57/57 189/55/55
f 147/54/54 138/58/58 166/52/52
f 114/59/59 138/58/58 147/54/54
f 213/47/47 184/60/60 208/23/23
f 73/61/61 90/62/62 72/63/63
f 73/61/61 93/64/64 90/62/62
f 90/62/62 93/64/64 116/65/65
f 90/62/62 116/65/65 114/59/59
f 114/59/59 116/65/65 138/58/58
f 55/66/66 74/67/67 73/61/61
f 73/61/61 74/67/67 93/64/64
f 93/64/64 118/68/68 116/65/65
f 116/65/65 118/68/68 139/69/69
f 116/65/65 139/69/69 138/58/58
f 138/58/58 139/69/69 166/52/52
f 166/52/52 139/69/69 178/51/51
f 74/67/67 95/70/70 93/64/64
f 93/64/64 95/70/70 118/68/68
f 178/51/51 167/71/71 199/49/49
f 110/9/9 85/8/8 101/72/72
f 110/9/9 101/72/72 134/29/29
f 134/29/29 101/72/72 102/73/73
f 134/29/29 102/73/73 136/7/7
f 154/4/4 144/74/74 181/75/75
f 195/3/3 181/75/75 197/1/1
f 77/11/11 63/76/76 85/8/8
f 136/7/7 102/73/73 124/6/6
f 124/6/6 113/77/77 154/4/4
f 181/75/75 164/78/78 197/1/1
f 154/4/4 113/77/77 144/74/74
f 181/75/75 144/74/74 164/78/78
f 211/2/2 197/1/1 198/79/79
f 211/2/2 198/79/79 231/24/24
f 85/8/8 63/76/76 65/80/80
f 85/8/8 65/80/80 101/72/72
f 101/72/72 65/80/80 79/81/81
f 102/73/73 79/81/81 89/82/82
f 102/73/73 89/82/82 113/77/77
f 137/83/83 128/84/84 164/78/78
f 164/78/78 128/84/84 156/85/85
f 79/81/81 67/86/86 89/82/82
f 113/77/77 89/82/82 104/87/87
f 113/77/77 104/87/87 126/88/88
f 137/83/83 126/88/88 128/84/84
f 104/87/87 69/89/89 106/90/90
f 128/84/84 106/90/90 115/91/91
f 106/90/90 71/92/92 91/93/93
f 106/90/90 91/93/93 115/91/91
f 115/91/91 156/85/85 128/84/84
f 106/90/90 128/84/84 104/87/87
f 69/89/89 104/87/87 67/86/86
f 197/1/1 183/94/94 198/79/79
f 183/94/94 197/1/1 164/78/78
f 183/94/94 164/78/78 156/85/85
f 137/83/83 164/78/78 144/74/74
f 137/83/83 144/74/74 126/88/88
f 126/88/88 144/74/74 113/77/77
f 79/81/81 102/73/73 101/72/72
f 128/84/84 126/88/88 104/87/87
f 67/86/86 104/87/87 89/82/82
f 71/92/92 106/90/90 69/89/89
f 181/75/75 195/3/3 186/31/31
f 181/75/75 186/31/31 154/4/4
f 136/7/7 142/27/27 134/29/29
f 77/11/11 99/10/10 98/12/12
f 113/77/77 124/6/6 102/73/73
f 154/4/4 186/31/31 175/5/5
f 110/9/9 134/29/29 122/33/33
f 110/9/9 122/33/33 99/10/10
f 223/35/35 186/31/31 195/3/3
f 142/27/27 180/26/26 173/40/40
f 142/27/27 173/40/40 152/28/28
f 98/12/12 120/30/30 108/16/16
f 98/12/12 108/16/16 59/14/14
f 186/31/31 223/35/35 205/32/32
f 175/5/5 205/32/32 180/26/26
f 152/28/28 173/40/40 160/36/36
f 152/28/28 160/36/36 122/33/33
f 122/33/33 160/36/36 133/34/34
f 133/34/34 150/17/17 120/30/30
f 120/30/30 150/17/17 108/16/16
f 204/39/39 219/42/42 192/41/41
f 192/41/41 201/44/44 171/37/37
f 169/19/19 171/37/37 200/21/21
f 200/21/21 171/37/37 201/44/44
f 208/23/23 184/60/60 179/20/20
f 179/20/20 184/60/60 148/95/95
f 179/20/20 148/95/95 158/18/18
f 158/18/18 148/95/95 131/45/45
f 131/45/45 95/70/70 96/15/15
f 96/15/15 95/70/70 75/96/96
f 96/15/15 75/96/96 57/46/46
f 184/60/60 213/47/47 199/49/49
f 184/60/60 199/49/49 167/71/71
f 184/60/60 167/71/71 148/95/95
f 148/95/95 167/71/71 139/69/69
f 148/95/95 139/69/69 131/45/45
f 131/45/45 139/69/69 118/68/68
f 131/45/45 118/68/68 95/70/70
f 95/70/70 74/67/67 75/96/96
f 167/71/71 178/51/51 139/69/69
f 178/51/51 207/50/50 189/55/55
f 14/97/97 52/98/98 53/99/99
f 14/100/97 53/101/99 13/102/100
f 13/102/100 53/101/99 51/103/101
f 13/102/100 51/103/101 11/104/102
f 11/104/102 51/103/101 50/105/103
f 11/104/102 50/105/103 9/106/104
f 9/106/104 50/105/103 46/107/105
f 9/106/104 46/107/105 7/108/106
f 7/108/106 46/107/105 38/109/107
f 7/108/106 38/109/107 5/110/108
f 5/110/108 38/109/107 36/111/109
f 5/110/108 36/111/109 3/112/110
f 3/112/110 36/111/109 34/113/111
f 3/112/110 34/113/111 1/114/112
f 1/114/112 34/113/111 33/115/113
f 1/114/112 33/115/113 2/116/114
f 2/116/114 33/115/113 35/117/115
f 2/116/114 35/117/115 4/118/116
f 4/118/116 35/117/115 37/119/117
f 4/118/116 37/119/117 6/120/118
f 6/120/118 37/119/117 8/121/119
f 8/121/119 37/119/117 45/122/120
f 8/121/119 45/122/120 10/123/121
f 10/123/121 45/122/120 49/124/122
f 10/123/121 49/124/122 12/125/123
f 12/125/123 49/124/122 52/98/98
f 12/125/123 52/98/98 14/97/97
f 282/126/124 253/127/125 283/128/126
f 283/128/126 253/127/125 281/129/127
f 281/129/127 253/127/125 251/130/128
f 281/129/127 251/130/128 247/131/129
f 281/129/127 247/131/129 279/132/130
f 279/132/130 247/131/129 243/133/131
f 279/132/130 243/133/131 277/134/132
f 277/134/132 243/133/131 237/135/133
f 277/134/132 237/135/133 275/136/134
f 275/136/134 237/135/133 235/137/135
f 275/136/134 235/137/135 273/138/136
f 273/138/136 235/137/135 233/139/137
f 273/138/136 233/139/137 272/140/138
f 272/141/138 233/142/137 234/143/139
f 272/141/138 234/143/139 274/144/140
f 274/144/140 234/143/139 236/145/141
f 274/144/140 236/145/141 276/146/142
f 276/146/142 236/145/141 238/147/143
f 276/146/142 238/147/143 278/148/144
f 278/148/144 238/147/143 244/149/145
f 278/148/144 244/149/145 280/150/146
f 280/150/146 244/149/145 248/151/147
f 280/150/146 248/151/147 282/126/124
f 282/126/124 248/151/147 252/152/148
f 282/126/124 252/152/148 253/127/125
f 283/153/149 269/154/150 271/155/151
f 271/156/151 270/157/152 231/158/24
f 271/156/151 231/158/24 230/159/153
f 269/154/150 283/153/149 281/160/154
f 269/154/150 281/160/154 267/161/155
f 267/161/155 281/160/154 279/162/156
f 267/161/155 279/162/156 263/163/157
f 208/164/23 215/165/22 213/166/47
f 214/167/158 227/168/159 228/169/160
f 209/170/161 222/171/162 232/172/163
f 209/170/161 232/172/163 224/173/164
f 263/163/157 261/174/165 219/175/42
f 219/175/42 261/174/165 217/176/43
f 279/162/156 277/177/166 263/163/157
f 263/163/157 277/177/166 261/174/165
f 217/176/43 261/174/165 215/165/22
f 261/174/165 259/178/167 215/165/22
f 215/165/22 259/178/167 213/166/47
f 277/177/166 275/179/168 261/174/165
f 261/174/165 275/179/168 257/180/169
f 261/174/165 257/180/169 259/178/167
f 259/178/167 257/180/169 213/166/47
f 257/180/169 275/179/168 273/181/170
f 257/180/169 273/181/170 255/182/171
f 255/182/171 273/181/170 272/183/172
f 255/182/171 272/183/172 254/184/173
f 272/183/172 274/185/174 254/184/173
f 254/184/173 274/185/174 256/186/175
f 256/186/175 258/187/176 227/168/159
f 227/168/159 258/187/176 228/169/160
f 274/185/174 276/188/177 256/186/175
f 256/186/175 276/188/177 258/187/176
f 258/187/176 260/189/178 228/169/160
f 228/169/160 260/189/178 216/190/179
f 258/187/176 276/188/177 260/189/178
f 260/189/178 276/188/177 278/191/180
f 260/189/178 278/191/180 262/192/181
f 262/192/181 278/191/180 280/193/182
f 262/192/181 280/193/182 264/194/183
f 264/194/183 280/193/182 266/195/184
f 232/172/163 266/195/184 268/196/185
f 232/172/163 268/196/185 224/173/164
f 224/173/164 268/196/185 230/159/153
f 280/193/182 282/197/186 266/195/184
f 266/195/184 282/197/186 268/196/185
f 268/196/185 271/156/151 230/159/153
f 268/196/185 282/197/186 271/156/151
f 282/197/186 283/198/149 271/156/151
f 219/175/42 221/199/38 263/163/157
f 263/163/157 221/199/38 265/200/187
f 263/163/157 265/200/187 267/161/155
f 221/199/38 223/201/35 265/200/187
f 265/200/187 223/201/35 267/161/155
f 223/201/35 229/202/25 267/161/155
f 267/161/155 229/202/25 269/154/150
f 269/154/150 229/202/25 270/203/152
f 269/154/150 270/203/152 271/155/151
f 229/202/25 231/204/24 270/203/152
f 213/166/47 257/180/169 226/205/48
f 257/180/169 255/182/171 226/205/48
f 226/205/48 255/182/171 225/206/56
f 255/182/171 254/184/173 225/206/56
f 225/206/56 254/184/173 212/207/57
f 254/184/173 256/186/175 212/207/57
f 212/207/57 256/186/175 227/168/159
f 218/208/188 216/190/179 262/192/181
f 262/192/181 216/190/179 260/189/178
f 220/209/189 218/208/188 262/192/181
f 220/209/189 262/192/181 264/194/183
f 222/171/162 220/209/189 264/194/183
f 222/171/162 264/194/183 266/195/184
f 222/171/162 266/195/184 232/172/163
f 80/210/190 71/211/92 32/212/191
f 80/210/190 32/212/191 70/213/192
f 78/214/193 64/215/194 62/216/195
f 76/217/196 60/218/197 58/219/198
f 76/217/196 58/219/198 56/220/199
f 72/221/63 54/222/200 29/223/201
f 72/221/63 29/223/201 73/224/61
f 73/224/61 29/223/201 55/225/66
f 74/226/67 55/225/66 75/227/96
f 75/227/96 55/225/66 57/228/46
f 77/229/11 61/230/13 63/231/76
f 79/232/81 65/233/80 67/234/86
f 14/235/97 13/236/100 28/237/202
f 26/238/203 13/236/100 11/239/204
f 26/238/203 11/239/204 24/240/205
f 24/240/205 11/239/204 9/241/206
f 24/240/205 9/241/206 22/242/207
f 9/241/206 7/243/208 22/242/207
f 22/242/207 20/244/209 62/216/195
f 62/216/195 20/244/209 60/218/197
f 22/242/207 7/243/208 20/244/209
f 60/218/197 20/244/209 58/219/198
f 7/243/208 5/245/210 20/244/209
f 20/244/209 18/246/211 58/219/198
f 20/244/209 5/245/210 18/246/211
f 58/219/198 18/246/211 56/220/199
f 18/246/211 16/247/212 56/220/199
f 56/220/199 16/247/212 54/222/200
f 5/245/210 3/248/213 18/246/211
f 18/246/211 3/248/213 16/247/212
f 16/247/212 3/248/213 1/249/214
f 16/247/212 1/249/214 15/250/215
f 15/250/215 1/249/214 2/251/216
f 15/250/215 2/251/216 17/252/217
f 57/228/46 19/253/218 59/254/14
f 2/251/216 4/255/219 17/252/217
f 17/252/217 4/255/219 19/253/218
f 19/253/218 21/256/220 59/254/14
f 59/254/14 21/256/220 61/230/13
f 4/255/219 6/257/221 19/253/218
f 19/253/218 6/257/221 21/256/220
f 21/256/220 30/258/222 61/230/13
f 61/230/13 30/258/222 63/231/76
f 6/257/221 8/259/223 21/256/220
f 21/256/220 8/259/223 23/260/224
f 21/256/220 23/260/224 30/258/222
f 30/258/222 23/260/224 63/231/76
f 63/231/76 23/260/224 65/233/80
f 23/260/224 8/259/223 10/261/225
f 23/260/224 10/261/225 25/262/226
f 25/262/226 10/261/225 12/263/227
f 25/262/226 12/263/227 27/264/228
f 27/264/228 12/263/227 14/265/97
f 27/264/228 14/265/97 28/266/202
f 71/211/92 28/237/202 32/212/191
f 70/213/192 32/212/191 26/238/203
f 70/213/192 26/238/203 68/267/229
f 68/267/229 26/238/203 66/268/230
f 66/268/230 26/238/203 24/240/205
f 66/268/230 24/240/205 31/269/231
f 64/215/194 31/269/231 22/242/207
f 64/215/194 22/242/207 62/216/195
f 32/212/191 28/237/202 13/236/100
f 32/212/191 13/236/100 26/238/203
f 31/269/231 24/240/205 22/242/207
f 28/266/202 71/270/92 27/264/228
f 27/264/228 71/270/92 69/271/89
f 27/264/228 69/271/89 67/234/86
f 27/264/228 67/234/86 25/262/226
f 25/262/226 67/234/86 65/233/80
f 25/262/226 65/233/80 23/260/224
f 19/253/218 57/228/46 55/225/66
f 15/250/215 29/223/201 54/222/200
f 15/250/215 54/222/200 16/247/212
f 55/225/66 17/252/217 19/253/218
f 17/252/217 55/225/66 29/223/201
f 15/250/215 17/252/217 29/223/201
f 240/272/232 39/273/233 239/274/234
f 239/275/234 39/276/233 40/277/235
f 239/275/234 40/277/235 241/278/236
f 241/278/236 40/277/235 42/279/237
f 241/278/236 42/279/237 246/280/238
f 246/280/238 42/279/237 44/281/239
f 246/280/238 44/281/239 250/282/240
f 250/282/240 44/281/239 48/283/241
f 250/282/240 48/283/241 47/284/242
f 250/282/240 47/284/242 249/285/243
f 249/285/243 47/284/242 245/286/244
f 245/286/244 47/284/242 43/287/245
f 245/286/244 43/287/245 242/288/246
f 242/288/246 43/287/245 41/289/247
f 242/288/246 41/289/247 240/272/232
f 240/272/232 41/289/247 39/273/233
f 72/290/63 90/291/62 92/292/248
f 92/292/248 90/291/62 114/293/59
f 117/294/249 147/295/54 157/296/250
f 117/294/249 157/296/250 130/297/251
f 130/297/251 157/296/250 140/298/252
f 119/299/253 149/300/254 159/301/255
f 119/299/253 159/301/255 132/302/256
f 123/303/257 151/304/258 161/36/259
f 123/303/257 161/36/259 135/305/260
f 143/306/261 135/305/260 162/307/262
f 125/308/263 153/309/264 155/310/265
f 145/311/266 155/310/265 163/312/267
f 146/58/268 145/311/266 165/52/269
f 156/313/85 146/58/268 165/52/269
f 194/314/270 209/315/161 176/316/271
f 140/298/252 157/296/250 168/317/272
f 132/302/256 159/301/255 170/318/273
f 132/302/256 170/318/273 141/27/274
f 151/304/258 141/27/274 172/319/275
f 151/304/258 172/319/275 161/36/259
f 135/305/260 161/36/259 174/320/276
f 135/305/260 174/320/276 162/307/262
f 143/306/261 162/307/262 153/309/264
f 153/309/264 162/307/262 176/316/271
f 188/321/277 177/322/53 189/323/55
f 188/321/277 189/323/55 206/324/278
f 206/324/278 189/323/55 212/325/57
f 227/326/159 206/324/278 212/325/57
f 188/321/277 157/296/250 177/322/53
f 177/322/53 157/296/250 147/295/54
f 227/326/159 190/327/279 206/324/278
f 206/324/278 190/327/279 188/321/277
f 188/321/277 190/327/279 168/317/272
f 188/321/277 168/317/272 157/296/250
f 227/326/159 214/328/158 190/327/279
f 214/328/158 228/329/160 191/330/280
f 228/329/160 216/331/179 191/330/280
f 191/330/280 216/331/179 202/39/281
f 191/330/280 202/39/281 170/318/273
f 170/318/273 202/39/281 172/319/275
f 202/39/281 193/41/282 172/319/275
f 172/319/275 193/41/282 161/36/259
f 161/36/259 193/41/282 174/320/276
f 202/39/281 216/331/179 218/332/188
f 193/41/282 218/332/188 220/333/189
f 193/41/282 220/333/189 203/334/283
f 162/307/262 194/314/270 176/316/271
f 203/334/283 220/333/189 194/314/270
f 194/314/270 220/333/189 222/335/162
f 196/336/284 224/337/164 230/338/153
f 196/336/284 230/338/153 210/339/285
f 182/51/286 210/339/285 198/340/79
f 210/339/285 230/338/153 198/340/79
f 198/340/79 230/338/153 231/341/24
f 198/340/79 183/342/94 165/52/269
f 165/52/269 183/342/94 156/313/85
f 146/58/268 156/313/85 115/343/91
f 80/344/190 91/345/93 71/63/92
f 80/344/190 105/346/287 91/345/93
f 91/345/93 105/346/287 129/347/288
f 91/345/93 129/347/288 115/343/91
f 115/343/91 129/347/288 146/58/268
f 80/344/190 70/348/192 105/346/287
f 105/346/287 127/349/289 129/347/288
f 129/347/288 127/349/289 145/311/266
f 129/347/288 145/311/266 146/58/268
f 70/348/192 68/350/229 103/351/290
f 70/348/192 103/351/290 105/346/287
f 105/346/287 103/351/290 127/349/289
f 88/352/291 66/353/230 31/354/231
f 88/352/291 31/354/231 87/355/292
f 123/303/257 100/356/293 109/357/294
f 123/303/257 109/357/294 121/358/295
f 31/354/231 64/13/194 87/355/292
f 87/355/292 64/13/194 86/12/296
f 86/12/296 78/359/193 100/356/293
f 141/27/274 121/358/295 132/302/256
f 86/12/296 64/13/194 78/359/193
f 78/359/193 62/360/195 84/361/297
f 119/299/253 97/362/298 107/363/299
f 62/360/195 60/80/197 84/361/297
f 84/361/297 60/80/197 83/364/300
f 83/364/300 76/365/196 97/362/298
f 107/363/299 94/366/301 140/298/252
f 140/298/252 94/366/301 130/297/251
f 83/364/300 60/80/197 76/365/196
f 82/367/302 56/368/199 94/366/301
f 76/365/196 56/368/199 82/367/302
f 56/368/199 81/369/303 94/366/301
f 94/366/301 92/292/248 117/294/249
f 117/294/249 114/293/59 147/295/54
f 81/369/303 56/368/199 54/370/200
f 81/369/303 72/290/63 92/292/248
f 81/369/303 54/370/200 72/290/63
f 117/294/249 130/297/251 94/366/301
f 92/292/248 114/293/59 117/294/249
f 94/366/301 107/363/299 82/367/302
f 92/292/248 94/366/301 81/369/303
f 185/371/304 190/327/279 214/328/158
f 185/371/304 214/328/158 191/330/280
f 159/301/255 191/330/280 170/318/273
f 168/317/272 190/327/279 185/371/304
f 159/301/255 185/371/304 191/330/280
f 149/300/254 140/298/252 168/317/272
f 149/300/254 168/317/272 185/371/304
f 149/300/254 185/371/304 159/301/255
f 107/363/299 140/298/252 149/300/254
f 82/367/302 107/363/299 97/362/298
f 82/367/302 97/362/298 76/365/196
f 141/27/274 170/318/273 172/319/275
f 107/363/299 149/300/254 119/299/253
f 119/299/253 132/302/256 97/362/298
f 97/362/298 132/302/256 121/358/295
f 141/27/274 151/304/258 121/358/295
f 100/356/293 111/30/305 86/12/296
f 121/358/295 109/357/294 83/364/300
f 121/358/295 83/364/300 97/362/298
f 83/364/300 109/357/294 84/361/297
f 202/39/281 218/332/188 193/41/282
f 193/41/282 203/334/283 174/320/276
f 121/358/295 151/304/258 123/303/257
f 112/372/306 143/306/261 153/309/264
f 112/372/306 153/309/264 125/308/263
f 78/359/193 84/361/297 100/356/293
f 100/356/293 84/361/297 109/357/294
f 123/303/257 135/305/260 100/356/293
f 100/356/293 135/305/260 111/30/305
f 111/30/305 135/305/260 143/306/261
f 111/30/305 143/306/261 112/372/306
f 162/307/262 174/320/276 194/314/270
f 194/314/270 174/320/276 203/334/283
f 86/12/296 111/30/305 112/372/306
f 86/12/296 112/372/306 87/355/292
f 87/355/292 112/372/306 88/352/291
f 209/315/161 194/314/270 222/335/162
f 66/353/230 88/352/291 68/350/229
f 88/352/291 112/372/306 125/308/263
f 88/352/291 125/308/263 103/351/290
f 187/373/307 209/315/161 224/337/164
f 187/373/307 224/337/164 196/336/284
f 176/316/271 209/315/161 187/373/307
f 163/312/267 187/373/307 196/336/284
f 163/312/267 196/336/284 182/51/286
f 155/310/265 176/316/271 187/373/307
f 155/310/265 187/373/307 163/312/267
f 153/309/264 176/316/271 155/310/265
f 145/311/266 163/312/267 182/51/286
f 145/311/266 182/51/286 165/52/269
f 88/352/291 103/351/290 68/350/229
f 155/310/265 145/311/266 125/308/263
f 145/311/266 127/349/289 125/308/263
f 125/308/263 127/349/289 103/351/290
f 196/336/284 210/339/285 182/51/286
f 198/340/79 165/52/269 182/51/286
f 234/374/308 233/375/308 239/376/308
f 239/376/308 233/375/308 240/377/308
f 240/377/308 233/375/308 235/378/308
f 240/377/308 235/378/308 242/379/308
f 242/379/308 235/378/308 237/380/308
f 242/379/308 237/380/308 243/381/308
f 242/379/308 243/381/308 245/382/308
f 245/382/308 243/381/308 247/383/308
f 245/382/308 247/383/308 251/384/308
f 245/382/308 251/384/308 249/385/308
f 249/385/308 251/384/308 253/386/308
f 249/385/308 253/386/308 250/387/308
f 250/387/308 253/386/308 252/388/308
f 250/387/308 252/388/308 248/389/308
f 250/387/308 248/389/308 246/390/308
f 246/390/308 248/389/308 244/391/308
f 246/390/308 244/391/308 241/392/308
f 241/392/308 244/391/308 238/393/308
f 241/392/308 238/393/308 236/394/308
f 241/392/308 236/394/308 234/374/308
f 241/392/308 234/374/308 239/376/308
f 52/395/309 47/396/309 53/397/309
f 53/397/309 47/396/309 51/398/309
f 51/398/309 47/396/309 48/385/309
f 51/398/309 48/385/309 44/399/309
f 51/398/309 44/399/309 50/400/309
f 50/400/309 44/399/309 46/401/309
f 46/401/309 44/399/309 38/402/309
f 38/402/309 44/399/309 42/403/309
f 38/402/309 42/403/309 36/404/309
f 36/404/309 42/403/309 40/377/309
f 36/404/309 40/377/309 34/405/309
f 34/405/309 40/377/309 39/376/309
f 34/405/309 39/376/309 33/406/309
f 33/406/309 39/376/309 35/407/309
f 35/407/309 39/376/309 41/408/309
f 35/407/309 41/408/309 37/409/309
f 37/409/309 41/408/309 43/410/309
f 37/409/309 43/410/309 45/411/309
f 45/411/309 43/410/309 49/412/309
f 49/412/309 43/410/309 47/396/309
f 49/412/309 47/396/309 52/395/309
